<svg xmlns="http://www.w3.org/2000/svg" viewBox="0 0 496 496" width="50" height="50"><path d="M266.46 207.82h-40.782V248h40.782c11.455 0 20.75-8.625 20.75-20.085 0-11.47-9.295-20.094-20.75-20.094z" data-original="#CC4521" data-old_color="#EABF99" fill="#eabb92"/><path d="M248 109.605c-76.43 0-138.395 61.96-138.395 138.395S171.57 386.394 248 386.394c76.425 0 138.394-61.96 138.394-138.394S324.424 109.605 248 109.605zm18.46 165.18h-40.782v44.644h-26.786V181.035h67.568c26.746 0 48.438 20.125 48.438 46.88-.005 26.745-21.692 46.87-48.438 46.87z" data-original="#D8532B" data-old_color="#F8D8A8" fill="#f6d3a0"/><path d="M298.411 119.119c17.237 22.821 27.308 50.357 27.308 80.01 0 78.817-71.152 142.72-158.94 142.72-7.365 0-14.61-.487-21.718-1.362 25.34 28.18 62.063 45.907 102.939 45.907 76.425 0 138.394-61.96 138.394-138.394 0-58.64-36.487-108.725-87.983-128.881z" data-original="#CC4521" data-old_color="#EABF99" fill="#eabb92"/><path d="M286.41 232.379c.465-1.746.8-2.723.8-4.603 0-11.469-9.295-19.96-20.75-19.96h-40.782v8.929h40.782c9.571.004 17.562 6.808 19.95 15.634zm-19.95 42.407h-40.782v13.393h40.782c26.746 0 48.438-22.532 48.438-49.278 0-1.835-.125-4.504-.317-6.277-2.697 24.202-23.201 42.162-48.121 42.162z" data-original="#FC732D" class="active-path" data-old_color="#FFF2CF" fill="#fff2d0"/><path d="M248 120.418c74.617 0 135.417 59.058 138.26 132.988.058-1.8.134-3.59.134-5.406 0-76.434-61.97-138.395-138.394-138.395-76.43 0-138.395 61.96-138.395 138.395 0 1.817.071 3.607.134 5.406 2.844-73.93 63.64-132.988 138.26-132.988zM198.892 319.43h26.786v8.928h-26.786z" data-original="#FC732D" class="active-path" data-old_color="#FFF2CF" fill="#fff2d0"/></svg>