<svg class="scope-svg" xmlns="http://www.w3.org/2000/svg" viewBox="0 0 117.01 168.04"><path class="svg-fill" fill="#313131" d="M24.58 154.38c-3.63-.12-9.65-1.66-9.65-6.68V9.65a9.65 9.65 0 0 1 19.29 0v8.07a2.5 2.5 0 1 1-5 0V9.65a4.65 4.65 0 0 0-9.29 0v138c0 .8 2.65 1.6 4.73 1.68 4.56 0 4.56-.53 4.56-1.68V36.38a2.5 2.5 0 0 1 5 0V147.7c.01 6.68-6.51 6.68-9.64 6.68zm0 13.62C10.58 168 0 162.43 0 155c0-5.71 6.2-10.39 16.19-12.22a2.5 2.5 0 0 1 .9 4.92C9.15 149.24 5 152.56 5 155.09c0 3.75 8.38 8 19.58 8s19.58-4.2 19.58-8c0-2.59-4.5-6.08-12.84-7.43a2.5 2.5 0 1 1 .8-4.94c10.35 1.67 17 6.53 17 12.36.05 7.39-10.52 12.92-24.54 12.92zm7.15-53.53a2.5 2.5 0 0 1-.84-4.86L67.1 96.74v-38a2.5 2.5 0 0 1 3.34-2.36l16.42 5.84V40l-56-19.9a2.5 2.5 0 1 1 1.68-4.71L90.2 35.85a2.5 2.5 0 0 1 1.66 2.36v27.51a2.5 2.5 0 0 1-3.34 2.36L72.1 62.24V98.5a2.5 2.5 0 0 1-1.66 2.36l-37.87 13.47a2.5 2.5 0 0 1-.84.14zm37.87 0a2.5 2.5 0 0 1-2.5-2.5V58.7a2.5 2.5 0 0 1 3.34-2.36L145.34 83a2.5 2.5 0 0 1 0 4.71l-74.9 26.63a2.52 2.52 0 0 1-.84.13zm2.5-52.23v46.19L137 85.34zm-2.5-1.04a2.5 2.5 0 0 1-1.8-4.2l19.76-20.5a2.5 2.5 0 1 1 3.6 3.47L71.4 60.43a2.49 2.49 0 0 1-1.8.77z"/></svg>