<svg class="scope-svg" xmlns="http://www.w3.org/2000/svg" viewBox="0 0 170.53 150.53"><path class="svg-fill" d="M58.82 160.53a2.5 2.5 0 0 1-2.09-3.87 38 38 0 0 0 2.95-36.46 2.5 2.5 0 0 1 4.57-2 43 43 0 0 1-.11 35.39A43.55 43.55 0 0 0 90 106.73c-2.47 1.49-5 3-7.65 4.47a2.5 2.5 0 1 1-2.46-4.35c3.66-2.07 7.21-4.17 10.54-6.24a2.5 2.5 0 0 1 3.75 1.54 48.55 48.55 0 0 1-34.75 58.3 2.52 2.52 0 0 1-.61.08zM2.5 104.21a2.5 2.5 0 0 1-2.42-3.14 48.55 48.55 0 0 1 58.3-34.75 2.5 2.5 0 1 1-1.17 4.86A43.55 43.55 0 0 0 7 96.39a43 43 0 0 1 35.39-.11 2.5 2.5 0 0 1-2 4.57 38 38 0 0 0-36.52 2.95 2.5 2.5 0 0 1-1.37.41zM62 121.68h-1.89c-3.8.07-6.5-.26-13.73-7.49-7.71-7.71-8-11.1-7.58-15 0-.25.06-.51.08-.77a2.51 2.51 0 0 1 .25-.91l2.5-5a2.5 2.5 0 1 1 4.45 2.28q-1.19 2.21-2.29 4.47v.41c-.25 2.34-.47 4.36 6.14 11 6.1 6.09 7.6 6.07 10.11 6h2.11a2.5 2.5 0 0 1-.14 5zm29.82-16.46a2.5 2.5 0 0 1-1.32-4.62c12.86-8 23.18-15.81 30.68-23.31 25.52-25.52 32.45-61.27 34-71.91-10.64 1.55-46.39 8.48-71.91 34-7.5 7.5-15.34 17.82-23.31 30.68-1.45 2.35-2.92 4.79-4.35 7.26a2.5 2.5 0 1 1-4.32-2.51c1.46-2.51 2.95-5 4.43-7.38 8.17-13.19 16.25-23.82 24-31.59C111.17 4.38 155.92.17 157.81 0a2.5 2.5 0 0 1 2.71 2.71c-.16 1.89-4.37 46.64-35.84 78.11-7.77 7.78-18.4 15.86-31.59 24a2.49 2.49 0 0 1-1.31.41zM27 136a2.5 2.5 0 0 1-1.77-4.27l51.42-51.38a2.5 2.5 0 0 1 3.54 3.54l-51.4 51.38A2.49 2.49 0 0 1 27 136zm72-55a19.54 19.54 0 1 1 13.82-5.72A19.42 19.42 0 0 1 99 81zm0-34.09a14.55 14.55 0 1 0 10.29 4.26A14.45 14.45 0 0 0 99 46.94zm41.55 6.19c-5.74 0-14.11-5.71-20.76-12.36-8.62-8.62-15.65-20.13-10.73-25.05a2.5 2.5 0 1 1 3.54 3.54c-.84.84.85 8.1 10.73 18s17.13 11.57 18 10.73a2.5 2.5 0 0 1 3.54 3.54 5.82 5.82 0 0 1-4.32 1.6z"/></svg>