<svg class="scope-svg" xmlns="http://www.w3.org/2000/svg" viewBox="0 0 171.3 171.3"><path class="svg-fill" fill="#313131" d="M85.65 0a85.49 85.49 0 0 0-83.1 64.83A2.5 2.5 0 1 0 7.4 66 80.72 80.72 0 1 1 5 85.65a2.5 2.5 0 0 0-5 0A85.65 85.65 0 1 0 85.65 0zM69.51 78.56v-33a11.32 11.32 0 1 0-22.63 0v33a11.32 11.32 0 0 0 22.63 0zm-17.63 0v-33a6.32 6.32 0 1 1 12.63 0v33a6.32 6.32 0 0 1-12.63 0zm72.54 0v-33a11.32 11.32 0 1 0-22.63 0v33a11.32 11.32 0 0 0 22.63 0zm-17.63 0v-33a6.32 6.32 0 1 1 12.63 0v33a6.32 6.32 0 1 1-12.63 0zM23.7 85.65a2.5 2.5 0 0 0-5 0 66.95 66.95 0 1 0 133.89 0 2.5 2.5 0 0 0-5 0 61.95 61.95 0 1 1-123.89 0z"/></svg>