<svg class="scope-svg" xmlns="http://www.w3.org/2000/svg" viewBox="0 0 152.01 144.81"><path class="svg-fill" fill="#313131" d="M30.58 144.81a2.5 2.5 0 0 1-2.46-2.93l8.54-49.31L.76 57.7a2.5 2.5 0 0 1 1.39-4.27L40 48a2.5 2.5 0 1 1 .71 4.95L7.89 57.66l33.2 32.25a2.5 2.5 0 0 1 .72 2.22l-7.9 45.6 40.93-21.61a2.5 2.5 0 0 1 2.33 0l40.93 21.61-7.9-45.6a2.5 2.5 0 0 1 .72-2.22l33.2-32.25-45.81-6.58a2.5 2.5 0 0 1-1.89-1.37L76 8.17 60.94 38.81a2.5 2.5 0 0 1-4.49-2.21L73.76 1.4a2.5 2.5 0 0 1 4.49 0l22.07 44.92 49.54 7.11a2.5 2.5 0 0 1 1.39 4.27l-35.9 34.87 8.55 49.31a2.5 2.5 0 0 1-3.63 2.64L76 121.16l-44.26 23.36a2.49 2.49 0 0 1-1.16.29z"/></svg>