<svg xmlns="http://www.w3.org/2000/svg" viewBox="0 0 535.578 535.578" width="512" height="512"><path d="M401.683 29.754c0 13.147-6.66 23.803-14.877 23.803H148.771c-8.216 0-14.877-10.657-14.877-23.803v-5.951C133.895 10.657 140.555 0 148.771 0h238.035c8.217 0 14.877 10.657 14.877 23.803v5.951zm0 482.021c0 13.144-6.66 23.803-14.877 23.803H148.771c-8.216 0-14.877-10.658-14.877-23.803v-5.951c0-13.145 6.661-23.803 14.877-23.803h238.035c8.217 0 14.877 10.657 14.877 23.803v5.951z" data-original="#000000" class="active-path" data-old_color="#F7F3F3" fill="#FCFCFC"/><path d="M267.788 268.854l-2.818-1.922c-1.201-.82-29.757-20.441-58.755-52.427-38.706-42.693-59.164-86.976-59.163-128.063 0-24.483 13.39-44.937 38.721-59.149 21.726-12.19 50.853-18.903 82.016-18.903s60.29 6.713 82.016 18.902c25.331 14.212 38.721 34.666 38.721 59.149 0 41.087-20.459 85.371-59.164 128.063-28.999 31.985-57.554 51.606-58.756 52.426l-2.818 1.924zm.001-250.464c-29.477 0-56.866 6.259-77.122 17.624-15.334 8.604-33.614 24.336-33.614 50.428-.001 48.719 30.764 92.879 56.572 121.346 23.045 25.419 46.273 43.134 54.163 48.875 7.912-5.761 31.254-23.569 54.312-49.036 25.741-28.43 56.426-72.533 56.426-121.185 0-26.092-18.279-41.825-33.614-50.428-20.257-11.365-47.646-17.624-77.123-17.624z" data-original="#000000" class="active-path" data-old_color="#F7F3F3" fill="#FCFCFC"/><path d="M267.789 522.201c-31.163 0-60.29-6.713-82.016-18.902-25.332-14.212-38.721-34.665-38.721-59.148 0-41.087 20.458-85.371 59.164-128.064 28.998-31.985 57.553-51.607 58.754-52.427l2.818-1.922 2.817 1.922c1.202.82 29.757 20.441 58.755 52.427 38.706 42.693 59.165 86.978 59.165 128.064 0 24.483-13.39 44.937-38.722 59.148-21.725 12.189-50.852 18.902-82.014 18.902zm-.001-248.273c-7.914 5.763-31.254 23.57-54.31 49.036-25.741 28.431-56.426 72.533-56.426 121.186 0 26.091 18.28 41.823 33.614 50.427 20.256 11.365 47.645 17.624 77.123 17.624 29.477 0 56.866-6.259 77.122-17.624 15.335-8.604 33.614-24.336 33.614-50.427-.001-48.652-30.686-92.755-56.427-121.186-23.056-25.466-46.396-43.273-54.31-49.036zm78.939-144.07c0 66.028-78.939 119.553-78.939 119.553s-78.939-53.525-78.939-119.553 157.878-66.028 157.878 0z" data-original="#000000" class="active-path" data-old_color="#F7F3F3" fill="#FCFCFC"/></svg>