<svg xmlns="http://www.w3.org/2000/svg" viewBox="281 4337 83 86"><path fill="#FFF" d="M354.16 4361.72c2.31 5.83 4.16 26.05 4.84 52.28h-12.43c.68-26.23 2.54-46.45 4.84-52.28a3.495 3.495 0 0 1-2.13-3.22c0-1.93 1.57-3.5 3.5-3.5s3.5 1.57 3.5 3.5a3.47 3.47 0 0 1-2.12 3.22zM332.15 4414c-.47-1.91-2.26-3.57-4.82-4.66.32-.4.65-.8.97-1.21.72.53 1.41 1.14 2.07 1.84.02-1.54.05-3.06.08-4.57 5.04-6.55 9.99-13.89 10.65-18.23 1.1-7.29-2.74-14.15-9.03-17.32.82-10.11 1.86-17.61 3.04-21.29a3.468 3.468 0 0 1-1.83-3.06c0-1.93 1.57-3.5 3.5-3.5s3.5 1.57 3.5 3.5c0 1.28-.69 2.38-1.71 3 2.98 7.9 6.15 33.78 6.65 65.5h-13.07zm6.01-26.73c-1.14 7.57-18.14 26.25-18.14 26.25s-10.77-22.61-9.63-30.18c1.14-7.57 8.28-12.83 15.95-11.74 7.67 1.09 12.96 8.11 11.82 15.67zm-7.84-3.98c-.36-3.13-3.23-5.35-6.4-4.98-3.17.38-5.45 3.21-5.08 6.34.36 3.13 3.23 5.36 6.4 4.98 3.16-.37 5.44-3.21 5.08-6.34zm-22.9-.89c-.83 5.53 3.57 17.66 7.21 26.45-3.28 1.03-5.65 2.91-6.21 5.15h-8.07c.49-31.73 3.67-57.6 6.64-65.5a3.491 3.491 0 0 1-1.71-3c0-1.93 1.57-3.5 3.5-3.5s3.5 1.57 3.5 3.5c0 1.33-.74 2.46-1.83 3.06 1.25 3.91 2.36 12.11 3.19 23.18-3.24 2.57-5.56 6.29-6.22 10.66zm-20.85 31.6c.68-26.23 2.54-46.45 4.84-52.28a3.495 3.495 0 0 1-2.13-3.22c0-1.93 1.57-3.5 3.5-3.5s3.5 1.57 3.5 3.5c0 1.45-.88 2.69-2.13 3.22 2.31 5.83 4.16 26.05 4.84 52.28h-12.42zm29.25-2.32c.12.28.24.57.36.83.99 2.22 1.27 3.82 3.14 3.82s2.7-.63 5.35-3.76l.59-.71c1.84.73 3.03 1.86 3.03 3.13 0 2.21-3.58 4-8 4s-8-1.79-8-4c0-1.37 1.4-2.59 3.53-3.31z"/></svg>