<svg version="1" id="Londres" xmlns="http://www.w3.org/2000/svg" viewBox="0 0 83 86"><style>.st0{fill:#fff}</style><path class="st0" d="M47.5 34.1c-7.7-1.1-14.9 4.2-16.1 11.8-1.1 7.6 9.7 30.4 9.7 30.4s17.1-18.8 18.3-26.5c1.2-7.6-4.2-14.6-11.9-15.7zm-1.1 18.1c-3.2.4-6.1-1.9-6.4-5-.4-3.2 1.9-6 5.1-6.4 3.2-.4 6.1 1.9 6.4 5 .4 3.2-1.9 6.1-5.1 6.4z"/><path class="st0" d="M30.4 26.6h.8V38c.8-1.2 1.8-2.3 3-3.2 1.6-1.4 3.5-2.5 5.5-3.2v-.3c0-1 .8-1.8 1.8-1.8.8 0 1.5.5 1.7 1.3.7-.1 1.5-.1 2.3-.1.8 0 1.7.1 2.5.2 1.3.2 2.6.5 3.8 1v-5.2h1.4l-2-1.1v-2.8h-4.8v.7L43 21.8v-1.6h.2v-.3h-3.4v.3h.2v1.6l-3.3 1.6v-.7h-4.9v2.8l-2 1.1h.6zm-.3 51.1c0-.8.2-1.7.6-2.4.3-.7.8-1.3 1.4-1.8.9-.8 2-1.5 3.3-2-.8-1.9-1.7-4.1-2.6-6.4-1.5-4-2.7-7.5-3.5-10.4-1-3.9-1.4-6.9-1.1-9-.9.6-2 .9-3.2.9-2.5 0-4.7-1.5-5.7-3.7-.1-.1-.1-.2-.2-.2h.1c0-.1-.1-.1-.1-.2h-1.8V42l-.1-6.8V16.6h.9v-.3h-.5v-1.8h-1.2v-.8h.2v-.3h-.2c0-3.2-1.5-4.4-2.7-4.8l-.2-.1V5.6h.3v-.2h-.1c0-.6-.4-1.1-.9-1.2h-.4c-.5.1-.9.6-.9 1.2h-.1v.2h.3v3l-.2.1c-1.2.4-2.7 1.6-2.7 4.8h-.6v.3h.2v.8H7.1v1.7h-.5v.3h.7v31.1H4.6v.5h1.8v28.3H5.1v1.2h5.1v-3c0-1.2 1-2.3 2.3-2.3s2.3 1 2.3 2.3v3h7.1v-8.4h5v8.4h3.2zM10.4 21.9c0-1.1.9-2 2-2s2 .9 2 2v6.3h-4.1v-6.3zm3.2 46.3h-2.4v-3.7c0-.7.5-1.2 1.2-1.2s1.2.5 1.2 1.2v3.7zM15 42.6H9.8v-7.1c0-1.4 1.1-2.6 2.6-2.6 1.4 0 2.6 1.1 2.6 2.6v7.1zm2.3 2zm59.3 4.3v-.7h1.8v-.5h-2.8v-31h.7v-.3h-.5v-1.9h-1.2v-.8h.2v-.3h-.2c0-3.2-1.5-4.4-2.7-4.8l-.2-.1V5.6h.3v-.2h-.1c0-.6-.4-1.1-.9-1.2h-.4c-.5.1-.9.6-.9 1.2h-.1v.2h.3v3l-.2.1c-1.2.4-2.7 1.6-2.7 4.8h-.2v.3h.2v.8h-1.2v1.7h-.5v.3h.9v18.5l-.5 6.9v.4h-1.8c0 .1 0 .1-.1.2h.1c0 .1-.1.1-.2.2-.3.6-.7 1.2-1.2 1.7.4 1.9.4 3.8.1 5.7-.3 2.2-1.6 5-3.8 8.6-1.6 2.6-3.8 5.6-6.4 9-1.2 1.5-2.4 3-3.5 4.3.8.4 1.4.9 2 1.5 1.1 1.2 1.8 2.5 1.8 4h3.4v-8.4h5v8.4h7.1v-3c0-1.2 1-2.3 2.3-2.3 1.2 0 2.3 1 2.3 2.3v3H78v-1.2h-1.4V48.9zm-10.9-4.3zm2.9-22.7c0-1.1.9-2 2-2s2 .9 2 2v6.3h-4.1v-6.3zm3.2 46.3h-2.4v-3.7c0-.7.5-1.2 1.2-1.2s1.2.5 1.2 1.2v3.7zm1.4-25.6H68v-7.1c0-1.4 1.1-2.6 2.6-2.6 1.4 0 2.6 1.1 2.6 2.6v7.1zm-26.8 32c-.2.2-.4.5-.6.7-2.7 3.2-3.5 3.8-5.4 3.8-1.9 0-2.2-1.6-3.2-3.8-.1-.3-.2-.6-.4-.8-2.1.7-3.6 2-3.6 3.3 0 2.2 3.6 4 8.1 4s8.1-1.8 8.1-4c.1-1.3-1.1-2.4-3-3.2z"/></svg>