<svg xmlns="http://www.w3.org/2000/svg" viewBox="281 4337 83 86"><path fill="#FFF" d="M308 4405h10.68c-.91-2.24-1.84-4.67-2.68-7.11v3.11h-5v-7h3.75c-.62-2.11-1.12-4.15-1.42-6H308v17zm38.76-17c-.42 2.28-1.85 5.19-3.76 8.28v4.72h-3.18c-.98 1.36-1.99 2.7-3 4H356v-17h-9.24zm5.24 13h-5v-7h5v7zm-8.15-13.73c1.14-7.57-4.15-14.58-11.82-15.67-.67-.1-1.34-.14-2.01-.14-6.87 0-12.9 4.98-13.94 11.88-1.14 7.57 9.63 30.18 9.63 30.18s17-18.68 18.14-26.25zm-14.25-8.96c3.17-.38 6.04 1.85 6.4 4.98.36 3.13-1.91 5.96-5.08 6.34-3.17.38-6.04-1.85-6.4-4.98-.37-3.12 1.91-5.96 5.08-6.34zm-24.22 1.2c.38-.37.62-.9.62-1.51 0-1.1-.79-2-1.76-2H304v-10h-.53c.84 0 1.53-.32 1.53-1s-.68-1-1.53-1H303l-3.99-17.73c.51-.2.86-.7.86-1.27 0-.76-.62-1.38-1.38-1.38s-1.38.62-1.38 1.38c0 .58.36 1.07.86 1.27L294 4364h-.47c-.84 0-1.53.32-1.53 1s.68 1 1.53 1H293v10h-.24c-.97 0-1.76.9-1.76 2 0 .61.24 1.14.62 1.51L286 4387h4v27h17v-27h4l-5.62-7.49zm-6.88.49c1.66 0 3 1.34 3 3s-1.34 3-3 3-3-1.34-3-3 1.34-3 3-3zm3.5 26h-7v-15h7v15zm17.09 0H308v8h6.09c.88-2.2 3.19-4.02 6.24-5.06-.39-.92-.81-1.9-1.24-2.94zm14.16 3.42c2.44 1.08 4.26 2.69 5.02 4.58H356v-8h-19.97c-.95 1.21-1.89 2.36-2.78 3.42zm-2.2 2.6c-1.39 1.62-2.51 2.86-3.12 3.53-.57.63-1.38.98-2.22.98a2.993 2.993 0 0 1-2.71-1.71c-.31-.65-.82-1.74-1.45-3.13-2.1.72-3.49 1.93-3.49 3.32 0 2.21 3.5 4 7.81 4s7.81-1.79 7.81-4c0-1.2-1.02-2.26-2.63-2.99z"/></svg>