<svg xmlns="http://www.w3.org/2000/svg" viewBox="281 4337 83 86"><path fill="#FFF" d="M335 4399.79v.21h18v-24h1v-1h-16.22c.08.1.16.18.23.28 2.68 3.59 3.79 8.01 3.12 12.44-.48 3.16-3.03 7.62-6.13 12.07zm9-12.79c1.66 0 3 1.34 3 3v9h-6v-9c0-1.66 1.34-3 3-3zm5-36.05a2.5 2.5 0 0 1-3-2.45c0-.57.19-1.08.51-1.5h-.01c.83 0 1.5-.67 1.5-1.5s-.67-1.5-1.5-1.5h-.5c0-.55-.9-1-2-1s-2 .45-2 1h-.5c-.83 0-1.5.67-1.5 1.5s.67 1.5 1.5 1.5h-.01c.32.42.51.93.51 1.5a2.5 2.5 0 0 1-3 2.45v6.05h10v-6.05zm-28.97 62.58s17-18.68 18.14-26.25c1.14-7.57-4.15-14.58-11.82-15.67-.67-.1-1.34-.14-2.01-.14-6.87 0-12.9 4.98-13.94 11.88-1.15 7.57 9.63 30.18 9.63 30.18zm3.88-35.22c3.17-.38 6.04 1.85 6.4 4.98.36 3.13-1.91 5.96-5.08 6.34-3.17.38-6.04-1.85-6.4-4.98-.36-3.12 1.91-5.96 5.08-6.34zM306 4350.95a2.5 2.5 0 0 1-3-2.45c0-.57.19-1.08.51-1.5h-.01c.83 0 1.5-.67 1.5-1.5s-.67-1.5-1.5-1.5h-.5c0-.55-.9-1-2-1s-2 .45-2 1h-.5c-.83 0-1.5.67-1.5 1.5s.67 1.5 1.5 1.5h-.01c.32.42.51.93.51 1.5a2.5 2.5 0 0 1-3 2.45v6.05h10v-6.05zm19.37 61.07c-1.39 1.62-2.51 2.86-3.12 3.53-.57.63-1.38.98-2.22.98a2.993 2.993 0 0 1-2.71-1.71c-.31-.65-.82-1.74-1.45-3.13-2.1.72-3.49 1.93-3.49 3.32 0 2.21 3.5 4 7.81 4s7.81-1.79 7.81-4c0-1.2-1.02-2.26-2.63-2.99zM337 4374h14v-15h1v-1h-16v1h1v15zm5-5.67c0-1.1.9-2 2-2s2 .9 2 2v4.67h-4v-4.67zM311.44 4401H290v1h1v12h17.41c.88-2.2 3.19-4.02 6.24-5.06-1-2.32-2.14-5.06-3.21-7.94zm22.7 0c-2.16 3-4.51 5.94-6.57 8.42 2.44 1.08 4.26 2.69 5.02 4.58H354v-12h1v-1h-20.86zm-42.14-1h18v-3.05c-1.8-5.4-3.07-10.73-2.57-14.05.37-2.44 1.27-4.69 2.57-6.67v-.23h.15c.23-.34.49-.67.75-1H291v1h1v24zm6-10c0-1.66 1.34-3 3-3s3 1.34 3 3v9h-6v-9zm-4-16h14v-15h1v-1h-16v1h1v15zm5-5.67c0-1.1.9-2 2-2s2 .9 2 2v4.67h-4v-4.67z"/></svg>