<svg xmlns="http://www.w3.org/2000/svg" viewBox="281 4337 83 86"><path fill="#FFF" d="M307 4373h-2v-9h-15v9h-2v1h19v-1zm49-11h-2.01c-.09-3.07-2.96-5.53-6.49-5.53s-6.4 2.46-6.49 5.53H339v1h17v-1zm-50 0h-2.01c-.09-3.07-2.96-5.53-6.49-5.53s-6.4 2.46-6.49 5.53H289v1h17v-1zm31.85 25.27c1.14-7.57-4.15-14.58-11.82-15.67-.67-.1-1.34-.14-2.01-.14-6.87 0-12.9 4.98-13.94 11.88-1.14 7.57 9.63 30.18 9.63 30.18s17-18.68 18.14-26.25zm-14.25-8.96c3.17-.38 6.04 1.85 6.4 4.98.36 3.13-1.91 5.96-5.08 6.34-3.17.38-6.04-1.85-6.4-4.98-.37-3.12 1.91-5.96 5.08-6.34zm1.45 33.71c-1.39 1.62-2.51 2.86-3.12 3.53-.57.63-1.38.98-2.22.98a2.993 2.993 0 0 1-2.71-1.71c-.31-.65-.82-1.74-1.45-3.13-2.1.72-3.49 1.93-3.49 3.32 0 2.21 3.5 4 7.81 4s7.81-1.79 7.81-4c0-1.2-1.02-2.26-2.63-2.99zM307 4396h-2v-21h-15v21h-2v1h19v-1zm-7-2h-5v-11c0-1.66 1.12-3 2.5-3s2.5 1.34 2.5 3v11zm55-19h-15v4.55c.94 2.58 1.23 5.38.81 8.17-.13.85-.41 1.8-.81 2.81v5.47h-2v1h19v-1h-2v-21zm-5 19h-5v-11c0-1.66 1.12-3 2.5-3s2.5 1.34 2.5 3v11zm5-21v-9h-15v9h-2v1h19v-1h-2zm-58.35 36l14.49-7.94c-.36-.96-.71-1.92-1.05-2.9l-5.09 2.79V4398h-15v16h18.09c.87-2.15 3.08-3.95 6.04-5h-17.48zm43.35-8.15l-4.4-2.4c-.56.84-1.15 1.68-1.75 2.52l14.73 8.04H327.6c-.11.14-.23.28-.34.41 2.44 1.08 4.25 2.7 5.01 4.59H355v-16h-15v2.84z"/></svg>